<svg version="1.1" id="Layer_1" xmlns="http://www.w3.org/2000/svg" xmlns:xlink="http://www.w3.org/1999/xlink" x="0px" y="0px"
	 width="100%" viewBox="0 0 1080 1080" enable-background="new 0 0 1080 1080" xml:space="preserve">
<path fill="#FEFFFF" opacity="1.000000" stroke="none" 
	d="
M607.000000,1081.000000 
	C404.689972,1081.000000 202.879913,1081.000000 1.034936,1081.000000 
	C1.034936,721.064819 1.034936,361.129669 1.034936,1.097249 
	C360.893616,1.097249 720.787231,1.097249 1080.840454,1.097249 
	C1080.840454,360.999939 1080.840454,720.999939 1080.840454,1081.000000 
	C923.129211,1081.000000 765.314636,1081.000000 607.000000,1081.000000 
M951.998840,114.495819 
	C928.117188,92.291527 901.262512,74.574875 871.180664,62.008900 
	C848.262756,52.435524 824.824646,44.078423 799.708374,42.987682 
	C773.421570,41.846111 747.096130,41.150986 720.785461,41.084499 
	C618.299866,40.825500 515.813538,40.874020 413.327454,40.850918 
	C381.003510,40.843632 348.677582,40.777718 316.356384,41.110291 
	C298.066040,41.298496 279.786469,41.767120 261.779083,45.995335 
	C176.201401,66.089325 111.719597,113.921936 70.567451,191.938202 
	C56.853828,217.936493 46.570938,245.568436 43.687199,274.996613 
	C41.270580,299.657898 40.414402,324.549774 40.312199,349.345490 
	C40.017551,420.828918 40.432049,492.315460 40.608761,563.800659 
	C40.771069,629.458313 40.736420,695.118042 41.295113,760.772522 
	C41.535461,789.017822 42.624886,816.997864 51.979317,844.491150 
	C81.488953,931.222107 137.977264,991.629578 223.523849,1024.558228 
	C242.801651,1031.978638 262.549194,1038.183838 283.438141,1038.878906 
	C307.082306,1039.665649 330.743286,1040.379272 354.396942,1040.378540 
	C491.377167,1040.374023 628.357483,1040.188110 765.337585,1039.965576 
	C791.347290,1039.923340 817.035400,1038.254272 842.217346,1030.129150 
	C916.238647,1006.245483 972.106628,960.697144 1009.273987,892.394958 
	C1023.622192,866.027466 1033.645752,837.930725 1037.275024,808.145386 
	C1039.624512,788.863586 1039.841553,769.244080 1039.890381,749.773010 
	C1040.146362,647.793274 1040.158447,545.812500 1040.015747,443.832397 
	C1039.945435,393.510193 1039.550903,343.186066 1038.856567,292.868958 
	C1038.703491,281.776581 1037.815186,270.439636 1035.293457,259.677277 
	C1022.086853,203.312241 995.039612,154.670715 951.998840,114.495819 
z"/>
<path fill="#0A8F89" opacity="1.000000" stroke="none" 
	d="
M952.257568,114.738388 
	C995.039612,154.670715 1022.086853,203.312241 1035.293457,259.677277 
	C1037.815186,270.439636 1038.703491,281.776581 1038.856567,292.868958 
	C1039.550903,343.186066 1039.945435,393.510193 1040.015747,443.832397 
	C1040.158447,545.812500 1040.146362,647.793274 1039.890381,749.773010 
	C1039.841553,769.244080 1039.624512,788.863586 1037.275024,808.145386 
	C1033.645752,837.930725 1023.622192,866.027466 1009.273987,892.394958 
	C972.106628,960.697144 916.238647,1006.245483 842.217346,1030.129150 
	C817.035400,1038.254272 791.347290,1039.923340 765.337585,1039.965576 
	C628.357483,1040.188110 491.377167,1040.374023 354.396942,1040.378540 
	C330.743286,1040.379272 307.082306,1039.665649 283.438141,1038.878906 
	C262.549194,1038.183838 242.801651,1031.978638 223.523849,1024.558228 
	C137.977264,991.629578 81.488953,931.222107 51.979317,844.491150 
	C42.624886,816.997864 41.535461,789.017822 41.295113,760.772522 
	C40.736420,695.118042 40.771069,629.458313 40.608761,563.800659 
	C40.432049,492.315460 40.017551,420.828918 40.312199,349.345490 
	C40.414402,324.549774 41.270580,299.657898 43.687199,274.996613 
	C46.570938,245.568436 56.853828,217.936493 70.567451,191.938202 
	C111.719597,113.921936 176.201401,66.089325 261.779083,45.995335 
	C279.786469,41.767120 298.066040,41.298496 316.356384,41.110291 
	C348.677582,40.777718 381.003510,40.843632 413.327454,40.850918 
	C515.813538,40.874020 618.299866,40.825500 720.785461,41.084499 
	C747.096130,41.150986 773.421570,41.846111 799.708374,42.987682 
	C824.824646,44.078423 848.262756,52.435524 871.180664,62.008900 
	C901.262512,74.574875 928.117188,92.291527 952.257568,114.738388 
M728.039307,421.416321 
	C725.550598,420.487549 723.115784,419.363220 720.564819,418.660309 
	C695.404724,411.727020 670.236816,404.821838 645.047180,397.996704 
	C630.729614,394.117401 616.443970,390.161713 604.252014,381.205597 
	C594.757690,374.231201 588.691956,365.294037 589.151489,352.955963 
	C589.392456,346.487457 590.430908,345.402283 596.799255,345.160400 
	C603.955688,344.888519 611.162720,345.194000 618.267334,344.465118 
	C634.496704,342.800079 636.342041,340.242279 634.258850,324.082825 
	C633.791992,320.461517 634.004639,317.317291 637.016357,314.517853 
	C638.136108,313.476990 638.664917,310.535919 638.019531,309.118622 
	C636.591553,305.982269 637.096863,303.771210 639.399536,301.524292 
	C641.056091,299.907776 642.559204,298.133911 644.211975,296.342194 
	C642.246826,292.565552 640.365601,288.950165 638.324158,285.026825 
	C641.577393,283.481781 644.427002,282.183167 647.228455,280.787872 
	C656.108765,276.364899 657.464050,271.778473 651.421326,263.867615 
	C646.986511,258.061737 641.907471,252.714828 636.799683,247.471054 
	C634.476562,245.086075 633.971985,242.740265 633.953369,239.536346 
	C633.892700,229.090073 634.233154,218.522873 632.803223,208.226624 
	C629.286133,182.899780 614.773560,166.035995 590.450562,158.349426 
	C567.479675,151.090149 543.634338,150.200150 520.245605,154.500961 
	C493.921997,159.341492 474.283752,174.002151 467.325989,201.298340 
	C462.640869,219.678513 464.504822,237.980270 471.272583,255.740845 
	C475.061127,265.683075 479.022949,275.568878 482.470886,285.629486 
	C492.631836,315.277771 485.848572,356.789520 452.172180,380.114990 
	C437.622925,390.192322 421.248383,396.166229 404.767975,401.985657 
	C384.712006,409.067627 364.340759,415.387970 344.701385,423.482544 
	C323.902710,432.054871 310.611389,448.204346 305.555481,470.260590 
	C303.485504,479.290558 302.571930,488.689148 302.124725,497.967896 
	C300.833435,524.760071 300.073303,551.577454 299.055115,578.383118 
	C297.886444,609.150757 293.033386,639.273193 283.509460,668.622681 
	C275.575165,693.073303 269.328156,718.019409 268.253845,743.752075 
	C266.335968,789.690491 265.348816,835.668030 264.047241,881.631348 
	C263.943970,885.278137 264.392914,888.943176 264.635193,892.596436 
	C264.922394,896.926697 267.444855,899.471130 271.301270,901.079346 
	C282.325226,905.676697 295.386536,901.115234 299.629791,890.099060 
	C313.669983,853.648132 327.429230,817.086365 340.977570,780.449280 
	C349.343262,757.826904 357.388367,735.024963 360.482697,710.943848 
	C362.837006,692.621338 364.537018,674.212524 366.378845,655.827087 
	C368.669556,632.960388 370.843231,610.081848 372.997528,587.201782 
	C374.518219,571.050964 375.922760,554.889160 377.379150,538.732300 
	C379.172577,541.234070 380.271423,543.908325 380.976105,546.682678 
	C393.052551,594.227722 404.686493,641.889709 417.274231,689.298584 
	C424.246185,715.557068 426.659210,741.885132 420.687439,768.320801 
	C416.009277,789.030090 409.867950,809.464417 403.328247,829.681824 
	C396.886597,849.596130 388.920044,869.012146 382.032318,888.789429 
	C378.680786,898.412903 381.372589,901.636169 391.587830,901.838745 
	C408.245880,902.169189 424.904449,902.811646 441.561798,902.779968 
	C520.367065,902.630127 599.171997,902.309021 677.976868,902.000671 
	C683.626221,901.978577 689.307068,901.869873 694.912659,901.251709 
	C699.859863,900.706116 702.060852,897.819275 701.194519,892.930725 
	C700.359497,888.218201 698.913513,883.572449 697.322693,879.042419 
	C689.117432,855.676819 680.301819,832.513672 672.626587,808.977417 
	C665.447021,786.961243 660.038330,764.466309 659.805725,741.048218 
	C659.610535,721.401733 663.278442,702.250061 667.540466,683.258545 
	C677.190918,640.256531 687.328491,597.363708 697.315491,554.437561 
	C698.485229,549.409424 699.952637,544.450500 701.282104,539.459473 
	C702.527588,540.653992 702.850647,541.718323 702.985779,542.805908 
	C705.121338,559.986328 707.295654,577.162170 709.335693,594.354004 
	C712.945435,624.774536 716.235901,655.235046 720.126465,685.619141 
	C722.151917,701.437561 723.301086,717.726257 728.102783,732.762451 
	C741.396851,774.391785 756.226868,815.536743 770.841003,856.734436 
	C774.999023,868.455811 780.342712,879.770996 785.440430,891.138916 
	C788.168945,897.223572 792.697998,901.403259 799.822144,902.010010 
	C816.715210,903.448914 820.641846,899.898071 820.851135,882.821289 
	C820.875671,880.821472 820.949463,878.818970 820.880615,876.821838 
	C819.618103,840.188110 818.667053,803.539612 816.953857,766.926758 
	C815.628174,738.594849 811.962646,710.422241 803.189392,683.388000 
	C791.784302,648.243958 786.944580,612.128967 784.016418,575.543579 
	C781.665466,546.169128 778.959412,516.816956 775.927734,487.504822 
	C772.746338,456.745270 757.860107,434.055389 728.039307,421.416321 
z"/>
<path fill="#FFFFFF" opacity="1.000000" stroke="none" 
	d="
M728.373291,421.602539 
	C757.860107,434.055389 772.746338,456.745270 775.927734,487.504822 
	C778.959412,516.816956 781.665466,546.169128 784.016418,575.543579 
	C786.944580,612.128967 791.784302,648.243958 803.189392,683.388000 
	C811.962646,710.422241 815.628174,738.594849 816.953857,766.926758 
	C818.667053,803.539612 819.618103,840.188110 820.880615,876.821838 
	C820.949463,878.818970 820.875671,880.821472 820.851135,882.821289 
	C820.641846,899.898071 816.715210,903.448914 799.822144,902.010010 
	C792.697998,901.403259 788.168945,897.223572 785.440430,891.138916 
	C780.342712,879.770996 774.999023,868.455811 770.841003,856.734436 
	C756.226868,815.536743 741.396851,774.391785 728.102783,732.762451 
	C723.301086,717.726257 722.151917,701.437561 720.126465,685.619141 
	C716.235901,655.235046 712.945435,624.774536 709.335693,594.354004 
	C707.295654,577.162170 705.121338,559.986328 702.985779,542.805908 
	C702.850647,541.718323 702.527588,540.653992 701.282104,539.459473 
	C699.952637,544.450500 698.485229,549.409424 697.315491,554.437561 
	C687.328491,597.363708 677.190918,640.256531 667.540466,683.258545 
	C663.278442,702.250061 659.610535,721.401733 659.805725,741.048218 
	C660.038330,764.466309 665.447021,786.961243 672.626587,808.977417 
	C680.301819,832.513672 689.117432,855.676819 697.322693,879.042419 
	C698.913513,883.572449 700.359497,888.218201 701.194519,892.930725 
	C702.060852,897.819275 699.859863,900.706116 694.912659,901.251709 
	C689.307068,901.869873 683.626221,901.978577 677.976868,902.000671 
	C599.171997,902.309021 520.367065,902.630127 441.561798,902.779968 
	C424.904449,902.811646 408.245880,902.169189 391.587830,901.838745 
	C381.372589,901.636169 378.680786,898.412903 382.032318,888.789429 
	C388.920044,869.012146 396.886597,849.596130 403.328247,829.681824 
	C409.867950,809.464417 416.009277,789.030090 420.687439,768.320801 
	C426.659210,741.885132 424.246185,715.557068 417.274231,689.298584 
	C404.686493,641.889709 393.052551,594.227722 380.976105,546.682678 
	C380.271423,543.908325 379.172577,541.234070 377.379150,538.732300 
	C375.922760,554.889160 374.518219,571.050964 372.997528,587.201782 
	C370.843231,610.081848 368.669556,632.960388 366.378845,655.827087 
	C364.537018,674.212524 362.837006,692.621338 360.482697,710.943848 
	C357.388367,735.024963 349.343262,757.826904 340.977570,780.449280 
	C327.429230,817.086365 313.669983,853.648132 299.629791,890.099060 
	C295.386536,901.115234 282.325226,905.676697 271.301270,901.079346 
	C267.444855,899.471130 264.922394,896.926697 264.635193,892.596436 
	C264.392914,888.943176 263.943970,885.278137 264.047241,881.631348 
	C265.348816,835.668030 266.335968,789.690491 268.253845,743.752075 
	C269.328156,718.019409 275.575165,693.073303 283.509460,668.622681 
	C293.033386,639.273193 297.886444,609.150757 299.055115,578.383118 
	C300.073303,551.577454 300.833435,524.760071 302.124725,497.967896 
	C302.571930,488.689148 303.485504,479.290558 305.555481,470.260590 
	C310.611389,448.204346 323.902710,432.054871 344.701385,423.482544 
	C364.340759,415.387970 384.712006,409.067627 404.767975,401.985657 
	C421.248383,396.166229 437.622925,390.192322 452.172180,380.114990 
	C485.848572,356.789520 492.631836,315.277771 482.470886,285.629486 
	C479.022949,275.568878 475.061127,265.683075 471.272583,255.740845 
	C464.504822,237.980270 462.640869,219.678513 467.325989,201.298340 
	C474.283752,174.002151 493.921997,159.341492 520.245605,154.500961 
	C543.634338,150.200150 567.479675,151.090149 590.450562,158.349426 
	C614.773560,166.035995 629.286133,182.899780 632.803223,208.226624 
	C634.233154,218.522873 633.892700,229.090073 633.953369,239.536346 
	C633.971985,242.740265 634.476562,245.086075 636.799683,247.471054 
	C641.907471,252.714828 646.986511,258.061737 651.421326,263.867615 
	C657.464050,271.778473 656.108765,276.364899 647.228455,280.787872 
	C644.427002,282.183167 641.577393,283.481781 638.324158,285.026825 
	C640.365601,288.950165 642.246826,292.565552 644.211975,296.342194 
	C642.559204,298.133911 641.056091,299.907776 639.399536,301.524292 
	C637.096863,303.771210 636.591553,305.982269 638.019531,309.118622 
	C638.664917,310.535919 638.136108,313.476990 637.016357,314.517853 
	C634.004639,317.317291 633.791992,320.461517 634.258850,324.082825 
	C636.342041,340.242279 634.496704,342.800079 618.267334,344.465118 
	C611.162720,345.194000 603.955688,344.888519 596.799255,345.160400 
	C590.430908,345.402283 589.392456,346.487457 589.151489,352.955963 
	C588.691956,365.294037 594.757690,374.231201 604.252014,381.205597 
	C616.443970,390.161713 630.729614,394.117401 645.047180,397.996704 
	C670.236816,404.821838 695.404724,411.727020 720.564819,418.660309 
	C723.115784,419.363220 725.550598,420.487549 728.373291,421.602539 
z"/>
</svg>